<svg width="196" height="294" viewBox="0 0 196 294" fill="none" xmlns="http://www.w3.org/2000/svg">
<g clip-path="url(#clip0_5_3)">
<path d="M49 294.059C76.048 294.059 98 272.103 98 245.049V196.039H49C21.952 196.039 0 217.996 0 245.049C0 272.103 21.952 294.059 49 294.059Z" fill="#0ACF83"/>
<path d="M0 147.029C0 119.976 21.952 98.0197 49 98.0197H98V196.039H49C21.952 196.039 0 174.083 0 147.029Z" fill="#A259FF"/>
<path d="M0 49.0098C0 21.9564 21.952 0 49 0H98V98.0196H49C21.952 98.0196 0 76.0632 0 49.0098Z" fill="#F24E1E"/>
<path d="M98 0H147C174.048 0 196 21.9564 196 49.0098C196 76.0632 174.048 98.0196 147 98.0196H98V0Z" fill="#FF7262"/>
<path d="M196 147.029C196 174.083 174.048 196.039 147 196.039C119.952 196.039 98 174.083 98 147.029C98 119.976 119.952 98.0197 147 98.0197C174.048 98.0197 196 119.976 196 147.029Z" fill="#1ABCFE"/>
</g>
<defs>
<clipPath id="clip0_5_3">
<rect width="196" height="294" fill="white"/>
</clipPath>
</defs>
</svg>
