<svg width="295" height="295" viewBox="0 0 295 295" fill="none" xmlns="http://www.w3.org/2000/svg">
<path d="M62.457 0H75.709V13.1367H87.9238V0H101.176V39.7559H87.9238V26.5039H75.8242V39.7559H62.457M118.691 13.252H106.995V0H143.697V13.252H131.943V39.7559H118.691M149.517 0H163.402L171.93 14.001L180.457 0H194.343V39.7559H181.091V20.0508L171.814 34.3398L162.538 20.0508V39.7559H149.517M200.911 0H214.163V26.6191H232.946V39.7559H200.911" fill="black"/>
<path d="M61.9961 271.377L42.9824 57.9629H252.018L233.004 271.262L147.327 295" fill="#E44D26"/>
<path d="M147.5 276.851V75.4785H232.946L216.641 257.549" fill="#F16529"/>
<path d="M81.8164 101.579H147.5V127.737H110.51L112.93 154.529H147.5V180.63H88.9609M90.1133 193.767H116.387L118.23 214.682L147.5 222.518V249.828L93.8008 234.848" fill="#EBEBEB"/>
<path d="M212.953 101.579H147.385V127.737H210.533M208.171 154.529H147.385V180.688H179.65L176.597 214.682L147.385 222.518V249.713L200.969 234.848" fill="white"/>
</svg>
