<svg width="297" height="297" viewBox="0 0 297 297" fill="none" xmlns="http://www.w3.org/2000/svg">
<g clip-path="url(#clip0_5_15)">
<path d="M0 0H297V297H0V0Z" fill="#F7DF1E"/>
<path d="M78.0925 248.194L100.82 234.44C105.205 242.214 109.194 248.792 118.762 248.792C127.933 248.792 133.716 245.205 133.716 231.25V136.352H161.626V231.645C161.626 260.552 144.681 273.711 119.958 273.711C97.6307 273.711 84.6706 262.148 78.0913 248.192M176.786 245.204L199.511 232.046C205.494 241.816 213.269 248.993 227.024 248.993C238.59 248.993 245.964 243.21 245.964 235.235C245.964 225.666 238.388 222.277 225.628 216.696L218.652 213.703C198.516 205.133 185.159 194.367 185.159 171.639C185.159 150.705 201.107 134.755 226.029 134.755C243.772 134.755 256.531 140.937 265.701 157.085L243.969 171.042C239.184 162.469 234.002 159.08 226.027 159.08C217.853 159.08 212.669 164.264 212.669 171.042C212.669 179.415 217.853 182.806 229.814 187.989L236.791 190.979C260.517 201.148 273.873 211.514 273.873 234.838C273.873 259.96 254.137 273.714 227.622 273.714C201.705 273.714 184.958 261.354 176.785 245.205" fill="black"/>
</g>
<defs>
<clipPath id="clip0_5_15">
<rect width="297" height="297" fill="white"/>
</clipPath>
</defs>
</svg>
