<svg width="177" height="218" viewBox="0 0 177 218" fill="none" xmlns="http://www.w3.org/2000/svg">
<path opacity="0.15" d="M57.4287 110.916C57.4287 107.42 58.4639 104.002 60.4034 101.094C62.3429 98.1868 65.0996 95.9208 68.3249 94.5827C71.5501 93.2446 75.0991 92.8944 78.523 93.5766C81.947 94.2588 85.092 95.9426 87.5606 98.4151C90.0291 100.888 91.7101 104.038 92.3912 107.467C93.0723 110.897 92.7227 114.451 91.3868 117.682C90.0508 120.912 87.7885 123.674 84.8858 125.616C81.9831 127.559 78.5705 128.596 75.0795 128.596C70.3982 128.596 65.9087 126.733 62.5985 123.418C59.2884 120.102 57.4287 115.605 57.4287 110.916ZM163.334 128.596C166.825 128.596 170.237 127.559 173.14 125.616C176.043 123.674 178.305 120.912 179.641 117.682C180.977 114.451 181.326 110.897 180.645 107.467C179.964 104.038 178.283 100.888 175.815 98.4151C173.346 95.9426 170.201 94.2588 166.777 93.5766C163.353 92.8944 159.804 93.2446 156.579 94.5827C153.354 95.9208 150.597 98.1868 148.658 101.094C146.718 104.002 145.683 107.42 145.683 110.916C145.683 115.605 147.542 120.102 150.853 123.418C154.163 126.733 158.652 128.596 163.334 128.596ZM238.35 84.3972V208.153C238.35 218.703 234.165 228.821 226.718 236.281C219.27 243.741 209.168 247.932 198.635 247.932H39.7779C29.245 247.932 19.1435 243.741 11.6956 236.281C4.24772 228.821 0.0635376 218.703 0.0635376 208.153V84.3972C0.0635376 73.8472 4.24772 63.7293 11.6956 56.2694C19.1435 48.8094 29.245 44.6185 39.7779 44.6185H105.968V13.6794C105.968 10.1628 107.363 6.79015 109.846 4.3035C112.328 1.81685 115.696 0.419861 119.207 0.419861C122.718 0.419861 126.085 1.81685 128.567 4.3035C131.05 6.79015 132.445 10.1628 132.445 13.6794V44.6185H198.635C209.168 44.6185 219.27 48.8094 226.718 56.2694C234.165 63.7293 238.35 73.8472 238.35 84.3972ZM211.873 84.3972C211.873 80.8805 210.479 77.5079 207.996 75.0212C205.513 72.5346 202.146 71.1376 198.635 71.1376H39.7779C36.2669 71.1376 32.8998 72.5346 30.4171 75.0212C27.9345 77.5079 26.5398 80.8805 26.5398 84.3972V208.153C26.5398 211.67 27.9345 215.043 30.4171 217.529C32.8998 220.016 36.2669 221.413 39.7779 221.413H198.635C202.146 221.413 205.513 220.016 207.996 217.529C210.479 215.043 211.873 211.67 211.873 208.153V84.3972ZM198.635 175.004C198.635 183.796 195.148 192.228 188.942 198.444C182.735 204.661 174.317 208.153 165.54 208.153H72.8732C64.0958 208.153 55.6778 204.661 49.4713 198.444C43.2647 192.228 39.7779 183.796 39.7779 175.004C39.7779 166.213 43.2647 157.781 49.4713 151.564C55.6778 145.348 64.0958 141.855 72.8732 141.855H165.54C174.317 141.855 182.735 145.348 188.942 151.564C195.148 157.781 198.635 166.213 198.635 175.004ZM110.381 168.374V181.634H128.032V168.374H110.381ZM72.8732 181.634H83.905V168.374H72.8732C71.1177 168.374 69.4341 169.073 68.1928 170.316C66.9515 171.56 66.2541 173.246 66.2541 175.004C66.2541 176.763 66.9515 178.449 68.1928 179.692C69.4341 180.936 71.1177 181.634 72.8732 181.634ZM172.159 175.004C172.159 173.246 171.462 171.56 170.22 170.316C168.979 169.073 167.295 168.374 165.54 168.374H154.508V181.634H165.54C167.295 181.634 168.979 180.936 170.22 179.692C171.462 178.449 172.159 176.763 172.159 175.004Z" fill="white"/>
</svg>
