<svg width="462" height="378" viewBox="0 0 462 378" fill="none" xmlns="http://www.w3.org/2000/svg">
<g opacity="0.05">
<path d="M2.99025 191.636L79.1727 368.239C81.0869 372.677 85.4569 375.551 90.2897 375.551H443.778H530.71C535.543 375.551 539.913 372.677 541.827 368.239L618.01 191.636C619.343 188.545 619.329 185.038 617.972 181.958L541.857 9.22517C539.922 4.83401 535.576 2 530.778 2H449.567H90.2169C85.4183 2 81.0779 4.83401 79.143 9.22517L3.02797 181.958C1.67058 185.038 1.65692 188.545 2.99025 191.636Z" stroke="white" stroke-width="4"/>
<path d="M193.152 29.6737H121.536C118.762 29.6737 116.249 31.3122 115.131 33.851L48.8296 184.312C48.0448 186.093 48.0369 188.121 48.8078 189.908L115.148 343.695C116.255 346.261 118.781 347.922 121.575 347.922H193.227C198.097 347.922 201.478 343.073 199.796 338.503L144.944 189.55C144.363 187.973 144.369 186.24 144.961 184.667L199.704 39.1383C201.426 34.5609 198.042 29.6737 193.152 29.6737Z" stroke="white" stroke-width="4"/>
<rect x="267.53" y="31.6737" width="87.6695" height="307.33" rx="5" stroke="white" stroke-width="4"/>
<path d="M429.578 29.6737H501.193C503.968 29.6737 506.48 31.3122 507.599 33.851L573.9 184.312C574.685 186.093 574.693 188.121 573.922 189.908L507.582 343.695C506.475 346.261 503.949 347.922 501.154 347.922H429.503C424.633 347.922 421.251 343.073 422.934 338.503L477.786 189.55C478.366 187.973 478.36 186.24 477.769 184.667L423.026 39.1383C421.304 34.5609 424.687 29.6737 429.578 29.6737Z" stroke="white" stroke-width="4"/>
</g>
</svg>
