<svg width="295" height="295" viewBox="0 0 295 295" fill="none" xmlns="http://www.w3.org/2000/svg">
<g clip-path="url(#clip0_5_18)">
<path fill-rule="evenodd" clip-rule="evenodd" d="M271.73 229.789C255.685 229.342 243.238 230.987 232.806 235.375C229.802 236.582 224.981 236.582 224.585 240.363C226.191 241.949 226.384 244.545 227.792 246.744C230.197 250.735 234.415 256.111 238.224 258.9L251.062 268.074C258.887 272.856 267.714 275.649 275.336 280.435C279.752 283.228 284.163 286.817 288.579 289.811C290.827 291.406 292.19 294.003 295.001 294.995V294.392C293.598 292.604 293.193 290.012 291.794 288.01L285.769 282.232C279.954 274.456 272.728 267.672 264.904 262.095C258.482 257.706 244.443 251.727 241.835 244.353L241.439 243.906C245.846 243.46 251.062 241.909 255.28 240.711C262.107 238.924 268.321 239.317 275.336 237.525L284.973 234.732V232.944C281.362 229.356 278.754 224.569 274.945 221.182C264.715 212.41 253.473 203.834 241.835 196.657C235.616 192.67 227.589 190.074 220.97 186.691C218.555 185.493 214.549 184.895 213.146 182.901C209.526 178.522 207.525 172.735 204.917 167.546L188.467 132.854C184.856 125.078 182.644 117.302 178.237 110.125C157.57 76.2287 135.095 55.694 100.587 35.5527C93.167 31.3653 84.3399 29.5644 74.9551 27.3746L59.9088 26.5702C56.6936 25.1759 53.4875 21.3863 50.677 19.5898C39.2417 12.4127 9.7473 -3.13908 1.31583 17.3553C-4.10279 30.3151 9.34257 43.0739 13.9068 49.6566C17.3243 54.2416 21.7312 59.4256 24.146 64.6095C25.495 67.9969 25.9447 71.5899 27.3522 75.1785C30.5584 83.9509 33.5712 93.7244 37.7847 101.903C40.0331 106.09 42.3939 110.483 45.2044 114.268C46.8098 116.502 49.6202 117.459 50.2183 121.047C47.4078 125.038 47.2145 131.013 45.6091 136.005C38.3828 158.537 41.1933 186.45 51.4234 203.038C54.6386 208.021 62.2157 218.992 72.4954 214.8C81.5249 211.212 79.5103 199.847 82.1185 189.877C82.7255 187.486 82.3208 185.891 83.5214 184.291V184.738L91.7506 201.286C97.9696 211.056 108.807 221.227 117.832 228.011C122.643 231.599 126.457 237.784 132.473 239.974V239.37H132.078C130.873 237.583 129.065 236.779 127.459 235.384C123.849 231.796 119.837 227.407 117.027 223.421C108.604 212.258 101.185 199.892 94.5611 187.133C91.3459 180.953 88.5354 174.174 85.9362 167.993C84.7221 165.598 84.7221 162.005 82.7211 160.816C79.7082 165.196 75.3013 168.994 73.0844 174.375C69.2712 182.946 68.8754 193.515 67.4724 204.482C66.663 204.683 67.0228 204.482 66.6631 204.929C60.2506 203.338 58.0382 196.751 55.6324 191.173C49.6157 177.016 48.6084 154.287 53.8247 137.935C55.2277 133.748 61.2534 120.587 58.8476 116.601C57.6335 112.811 53.6313 110.621 51.4189 107.627C48.8108 103.838 46.0093 99.0558 44.2016 94.8685C39.39 83.6962 36.9843 71.3397 31.7635 60.1719C29.3487 54.988 25.1398 49.6029 21.7267 44.8212C17.9135 39.4362 13.709 35.6465 10.6961 29.2694C9.69333 27.035 8.29033 23.4867 9.89568 21.0913C10.2914 19.4959 11.1008 18.8569 12.6972 18.4994C15.3053 16.2649 22.734 19.0982 25.3421 20.2869C32.7618 23.2811 38.9808 26.0697 45.1999 30.2526C48.0104 32.2457 51.0232 36.0353 54.6342 37.0364H58.8521C65.2735 38.4307 72.4909 37.4833 78.5031 39.2708C89.1379 42.6672 98.7655 47.6455 107.399 53.035C133.679 69.5834 155.353 93.1122 169.995 121.231C172.4 125.816 173.403 130.003 175.615 134.789C179.833 144.563 185.05 154.528 189.254 164.105C193.472 173.476 197.483 183.053 203.5 190.829C206.513 195.017 218.546 197.206 223.96 199.401C227.976 201.188 234.191 202.797 237.81 204.987C244.628 209.174 251.449 213.96 257.866 218.545C261.072 220.932 271.109 225.919 271.707 229.896L271.73 229.789ZM67.1262 56.5208C64.3542 56.4964 61.5909 56.8314 58.9061 57.5174V57.9642H59.3018C60.9071 61.155 63.7177 63.3493 65.7232 66.1423L70.3414 75.7147L70.7371 75.2678C73.5476 73.2747 74.9551 70.0839 74.9551 65.3022C73.75 63.9079 73.5521 62.5091 72.5493 61.1148C71.3442 59.1217 68.7361 58.1207 67.1262 56.5297V56.5208Z" fill="#00678C"/>
</g>
<defs>
<clipPath id="clip0_5_18">
<rect width="295" height="295" fill="white"/>
</clipPath>
</defs>
</svg>
