<svg width="295" height="295" viewBox="0 0 295 295" fill="none" xmlns="http://www.w3.org/2000/svg">
<path d="M135.11 3.93635C142.485 -0.239742 151.888 -0.25818 159.079 3.93635L269.188 66.0062C276.074 69.8781 280.683 77.5573 280.619 85.4946V209.948C280.665 218.217 275.604 226.062 268.339 229.86L158.821 291.644C155.075 293.714 150.843 294.744 146.565 294.625C142.287 294.507 138.118 293.245 134.492 290.971L101.628 271.981C99.3874 270.644 96.8707 269.584 95.2851 267.417C96.6863 265.537 99.1754 265.297 101.204 264.467C105.776 263.011 109.961 260.78 114.165 258.42C115.225 257.682 116.525 257.959 117.539 258.623L145.564 274.829C147.565 275.982 149.593 274.461 151.307 273.493L258.844 212.806C260.172 212.16 260.909 210.759 260.799 209.302V86.0478C260.946 84.3884 259.996 82.8765 258.494 82.2035L149.252 20.6868C148.622 20.2514 147.875 20.0174 147.11 20.0157C146.344 20.0141 145.596 20.2449 144.965 20.6776L35.8795 82.3234C34.4045 82.9964 33.3904 84.4898 33.5748 86.1492V209.404C33.4457 210.86 34.2201 212.234 35.5568 212.861L64.7065 229.316C70.1824 232.266 76.9029 233.926 82.932 231.759C85.5703 230.765 87.8417 228.988 89.4416 226.666C91.0415 224.345 91.8935 221.59 91.8834 218.77L91.911 96.2529C91.782 94.4368 93.4967 92.9342 95.2574 93.1185H109.27C111.114 93.0724 112.561 95.0268 112.312 96.8521L112.284 220.144C112.294 231.096 107.795 243.006 97.6635 248.381C85.1813 254.834 69.7491 253.479 57.4145 247.274L26.0707 229.943C18.6957 226.256 13.7452 218.291 13.7913 210.031V85.5776C13.822 81.5327 14.934 77.5696 17.0121 74.0991C19.0901 70.6286 22.0586 67.7772 25.6098 65.8403L135.11 3.93635ZM166.859 90.2054C182.78 89.2835 199.826 89.597 214.152 97.4421C225.242 103.453 231.391 116.064 231.594 128.399C231.28 130.058 229.547 130.98 227.961 130.86C223.352 130.851 218.724 130.925 214.096 130.832C212.133 130.906 210.999 129.099 210.75 127.366C209.422 121.466 206.205 115.631 200.655 112.782C192.137 108.514 182.255 108.726 172.962 108.818C166.177 109.187 158.885 109.768 153.142 113.75C148.717 116.774 147.389 122.969 148.966 127.781C150.441 131.312 154.525 132.446 157.853 133.497C177.046 138.512 197.374 138.106 216.207 144.624C223.997 147.316 231.621 152.552 234.295 160.71C237.779 171.644 236.258 184.716 228.487 193.492C222.181 200.72 212.999 204.555 203.827 206.786C191.63 209.505 178.982 209.57 166.601 208.353C154.958 207.025 142.845 203.965 133.856 196.037C126.168 189.362 122.425 178.964 122.794 168.934C122.886 167.237 124.573 166.057 126.205 166.196H140.033C141.895 166.066 143.259 167.671 143.352 169.422C144.209 174.953 146.32 180.946 151.224 184.172C160.683 190.275 172.547 189.851 183.37 190.026C192.34 189.63 202.407 189.51 209.736 183.573C213.608 180.19 214.742 174.539 213.7 169.671C212.566 165.559 208.169 163.651 204.481 162.296C185.537 156.304 164.979 158.479 146.219 151.694C138.604 149.003 131.238 143.914 128.316 136.087C124.232 125.025 126.103 111.316 134.704 102.835C143.001 94.3999 155.17 91.1457 166.694 89.9842L166.859 90.2054Z" fill="#8CC84B"/>
</svg>
