<svg width="330" height="294" viewBox="0 0 330 294" fill="none" xmlns="http://www.w3.org/2000/svg">
<g clip-path="url(#clip0_5_56)">
<path d="M165 176.452C181.244 176.452 194.413 163.266 194.413 147C194.413 130.734 181.244 117.547 165 117.547C148.756 117.547 135.587 130.734 135.587 147C135.587 163.266 148.756 176.452 165 176.452Z" fill="#61DAFB"/>
<path d="M165 207.342C252.165 207.342 322.826 180.326 322.826 147C322.826 113.674 252.165 86.6584 165 86.6584C77.835 86.6584 7.17383 113.674 7.17383 147C7.17383 180.326 77.835 207.342 165 207.342Z" stroke="#61DAFB" stroke-width="15"/>
<path d="M112.813 177.171C156.395 252.759 215.091 300.527 243.913 283.865C272.735 267.202 260.77 192.417 217.187 116.829C173.605 41.241 114.909 -6.52747 86.087 10.1354C57.2647 26.7983 69.2301 101.583 112.813 177.171Z" stroke="#61DAFB" stroke-width="15"/>
<path d="M112.812 116.829C69.23 192.417 57.2645 267.202 86.0868 283.865C114.909 300.528 173.605 252.759 217.187 177.171C260.77 101.583 272.735 26.7983 243.913 10.1355C215.091 -6.52742 156.395 41.241 112.812 116.829Z" stroke="#61DAFB" stroke-width="15"/>
</g>
<defs>
<clipPath id="clip0_5_56">
<rect width="330" height="294" fill="white"/>
</clipPath>
</defs>
</svg>
