<svg width="3498" height="768" viewBox="0 0 3498 768" fill="none" xmlns="http://www.w3.org/2000/svg">
<rect x="2909" y="600" width="297" height="20" rx="10" fill="#D9D9D9"/>
<rect x="2909" y="600" width="20" height="20" rx="10" fill="#8CC84B"/>
<path d="M3011.2 497C3010.08 494.253 3008.85 491.52 3007.52 488.8C3006.21 486.053 3004.8 483.307 3003.28 480.56V497H2998.84V472.24H3002.8C3003.55 473.413 3004.29 474.693 3005.04 476.08C3005.79 477.44 3006.51 478.8 3007.2 480.16C3007.92 481.52 3008.57 482.84 3009.16 484.12C3009.77 485.4 3010.29 486.52 3010.72 487.48V472.24H3015.16V497H3011.2ZM3023.08 484.6C3023.08 485.8 3023.12 486.933 3023.2 488C3023.31 489.04 3023.49 489.947 3023.76 490.72C3024.05 491.493 3024.45 492.107 3024.96 492.56C3025.47 493.013 3026.15 493.24 3027 493.24C3027.83 493.24 3028.49 493.013 3029 492.56C3029.53 492.107 3029.93 491.493 3030.2 490.72C3030.49 489.92 3030.68 489 3030.76 487.96C3030.87 486.92 3030.92 485.8 3030.92 484.6C3030.92 483.4 3030.87 482.28 3030.76 481.24C3030.68 480.173 3030.49 479.253 3030.2 478.48C3029.93 477.707 3029.55 477.093 3029.04 476.64C3028.53 476.187 3027.85 475.96 3027 475.96C3026.15 475.96 3025.47 476.187 3024.96 476.64C3024.45 477.093 3024.05 477.72 3023.76 478.52C3023.49 479.293 3023.31 480.2 3023.2 481.24C3023.12 482.28 3023.08 483.4 3023.08 484.6ZM3018.08 484.6C3018.08 480.333 3018.87 477.12 3020.44 474.96C3022.01 472.773 3024.2 471.68 3027 471.68C3029.91 471.68 3032.12 472.773 3033.64 474.96C3035.16 477.12 3035.92 480.333 3035.92 484.6C3035.92 488.867 3035.15 492.093 3033.6 494.28C3032.05 496.44 3029.87 497.52 3027.04 497.52C3024.13 497.52 3021.91 496.44 3020.36 494.28C3018.84 492.093 3018.08 488.867 3018.08 484.6ZM3044.08 493C3044.21 493.027 3044.36 493.04 3044.52 493.04C3044.68 493.04 3044.83 493.04 3044.96 493.04C3046.08 493.04 3047.01 492.827 3047.76 492.4C3048.53 491.973 3049.15 491.387 3049.6 490.64C3050.08 489.893 3050.41 489.013 3050.6 488C3050.81 486.96 3050.92 485.827 3050.92 484.6C3050.92 483.533 3050.84 482.493 3050.68 481.48C3050.52 480.467 3050.24 479.573 3049.84 478.8C3049.44 478.027 3048.89 477.413 3048.2 476.96C3047.51 476.48 3046.61 476.24 3045.52 476.24C3045.31 476.24 3045.07 476.253 3044.8 476.28C3044.53 476.28 3044.29 476.307 3044.08 476.36V493ZM3055.92 484.6C3055.92 486.893 3055.63 488.853 3055.04 490.48C3054.48 492.08 3053.69 493.387 3052.68 494.4C3051.67 495.413 3050.45 496.16 3049.04 496.64C3047.65 497.093 3046.12 497.32 3044.44 497.32C3043.56 497.32 3042.69 497.267 3041.84 497.16C3041.01 497.08 3040.12 496.933 3039.16 496.72V472.56C3040.28 472.32 3041.33 472.16 3042.32 472.08C3043.31 472 3044.23 471.96 3045.08 471.96C3046.71 471.96 3048.19 472.2 3049.52 472.68C3050.88 473.16 3052.03 473.92 3052.96 474.96C3053.89 475.973 3054.61 477.28 3055.12 478.88C3055.65 480.453 3055.92 482.36 3055.92 484.6ZM3059.52 497V472.24H3074.52V476.32H3064.44V481.88H3073.2V485.96H3064.44V492.92H3075.4V497H3059.52ZM3094.52 488.72C3094.52 489.92 3094.36 491.053 3094.04 492.12C3093.75 493.187 3093.24 494.12 3092.52 494.92C3091.83 495.72 3090.92 496.36 3089.8 496.84C3088.68 497.293 3087.32 497.52 3085.72 497.52C3084.04 497.52 3082.64 497.307 3081.52 496.88C3080.4 496.453 3079.45 495.933 3078.68 495.32L3080.56 491.4C3081.23 491.827 3081.96 492.24 3082.76 492.64C3083.59 493.04 3084.43 493.24 3085.28 493.24C3086.56 493.24 3087.59 492.907 3088.36 492.24C3089.16 491.547 3089.56 490.28 3089.56 488.44V476.32H3081.28V472.24H3094.52V488.72ZM3106.28 493.4C3107.11 493.4 3107.79 493.32 3108.32 493.16C3108.88 492.973 3109.32 492.733 3109.64 492.44C3109.96 492.12 3110.17 491.773 3110.28 491.4C3110.41 491 3110.48 490.6 3110.48 490.2C3110.48 489.693 3110.33 489.24 3110.04 488.84C3109.75 488.44 3109.37 488.093 3108.92 487.8C3108.47 487.48 3107.96 487.2 3107.4 486.96C3106.84 486.693 3106.28 486.453 3105.72 486.24C3104.97 485.973 3104.2 485.667 3103.4 485.32C3102.6 484.973 3101.87 484.533 3101.2 484C3100.56 483.467 3100.03 482.813 3099.6 482.04C3099.17 481.24 3098.96 480.253 3098.96 479.08C3098.96 476.76 3099.71 474.947 3101.2 473.64C3102.72 472.333 3104.8 471.68 3107.44 471.68C3108.96 471.68 3110.28 471.853 3111.4 472.2C3112.55 472.547 3113.51 472.933 3114.28 473.36L3112.84 477.16C3112.17 476.787 3111.43 476.467 3110.6 476.2C3109.8 475.933 3108.87 475.8 3107.8 475.8C3105.19 475.8 3103.88 476.747 3103.88 478.64C3103.88 479.12 3104.01 479.547 3104.28 479.92C3104.55 480.267 3104.88 480.587 3105.28 480.88C3105.71 481.147 3106.17 481.387 3106.68 481.6C3107.21 481.813 3107.73 482.013 3108.24 482.2C3109.01 482.493 3109.81 482.827 3110.64 483.2C3111.49 483.547 3112.27 484.027 3112.96 484.64C3113.68 485.227 3114.27 485.973 3114.72 486.88C3115.17 487.76 3115.4 488.88 3115.4 490.24C3115.4 492.56 3114.64 494.36 3113.12 495.64C3111.63 496.893 3109.35 497.52 3106.28 497.52C3104.23 497.52 3102.59 497.307 3101.36 496.88C3100.13 496.427 3099.21 496.013 3098.6 495.64L3100.04 491.64C3100.76 492.067 3101.61 492.467 3102.6 492.84C3103.61 493.213 3104.84 493.4 3106.28 493.4Z" fill="white"/>
<path d="M3044.11 150.936C3051.49 146.76 3060.89 146.742 3068.08 150.936L3178.19 213.006C3185.07 216.878 3189.68 224.557 3189.62 232.495V356.948C3189.66 365.217 3184.6 373.062 3177.34 376.86L3067.82 438.644C3064.07 440.714 3059.84 441.744 3055.56 441.625C3051.29 441.507 3047.12 440.245 3043.49 437.971L3010.63 418.981C3008.39 417.644 3005.87 416.584 3004.29 414.417C3005.69 412.537 3008.18 412.297 3010.2 411.467C3014.78 410.011 3018.96 407.78 3023.17 405.42C3024.23 404.682 3025.53 404.959 3026.54 405.623L3054.56 421.829C3056.56 422.982 3058.59 421.461 3060.31 420.493L3167.84 359.806C3169.17 359.16 3169.91 357.759 3169.8 356.302V233.048C3169.95 231.388 3169 229.877 3167.49 229.204L3058.25 167.687C3057.62 167.251 3056.88 167.017 3056.11 167.016C3055.34 167.014 3054.6 167.245 3053.96 167.678L2944.88 229.323C2943.4 229.996 2942.39 231.49 2942.57 233.149V356.404C2942.45 357.86 2943.22 359.234 2944.56 359.861L2973.71 376.316C2979.18 379.266 2985.9 380.926 2991.93 378.759C2994.57 377.765 2996.84 375.988 2998.44 373.666C3000.04 371.345 3000.89 368.59 3000.88 365.77L3000.91 243.253C3000.78 241.437 3002.5 239.934 3004.26 240.119H3018.27C3020.11 240.072 3021.56 242.027 3021.31 243.852L3021.28 367.144C3021.29 378.096 3016.79 390.006 3006.66 395.381C2994.18 401.834 2978.75 400.479 2966.41 394.274L2935.07 376.943C2927.7 373.256 2922.75 365.291 2922.79 357.031V232.578C2922.82 228.533 2923.93 224.57 2926.01 221.099C2928.09 217.629 2931.06 214.777 2934.61 212.84L3044.11 150.936ZM3075.86 237.205C3091.78 236.284 3108.83 236.597 3123.15 244.442C3134.24 250.453 3140.39 263.064 3140.59 275.399C3140.28 277.058 3138.55 277.98 3136.96 277.86C3132.35 277.851 3127.72 277.925 3123.1 277.832C3121.13 277.906 3120 276.099 3119.75 274.366C3118.42 268.466 3115.21 262.631 3109.66 259.782C3101.14 255.514 3091.25 255.726 3081.96 255.818C3075.18 256.187 3067.89 256.768 3062.14 260.75C3057.72 263.774 3056.39 269.969 3057.97 274.781C3059.44 278.312 3063.52 279.446 3066.85 280.497C3086.05 285.512 3106.37 285.106 3125.21 291.624C3133 294.316 3140.62 299.552 3143.29 307.71C3146.78 318.644 3145.26 331.716 3137.49 340.492C3131.18 347.72 3122 351.555 3112.83 353.786C3100.63 356.505 3087.98 356.57 3075.6 355.353C3063.96 354.025 3051.84 350.965 3042.86 343.037C3035.17 336.362 3031.43 325.964 3031.79 315.934C3031.89 314.237 3033.57 313.057 3035.2 313.196H3049.03C3050.9 313.066 3052.26 314.671 3052.35 316.422C3053.21 321.953 3055.32 327.946 3060.22 331.172C3069.68 337.275 3081.55 336.851 3092.37 337.026C3101.34 336.63 3111.41 336.51 3118.74 330.573C3122.61 327.19 3123.74 321.539 3122.7 316.671C3121.57 312.559 3117.17 310.651 3113.48 309.296C3094.54 303.304 3073.98 305.479 3055.22 298.694C3047.6 296.003 3040.24 290.914 3037.32 283.087C3033.23 272.025 3035.1 258.316 3043.7 249.835C3052 241.4 3064.17 238.146 3075.69 236.984L3075.86 237.205Z" fill="#8CC84B"/>
<rect x="2519" y="600" width="297" height="20" rx="10" fill="#D9D9D9"/>
<rect x="2519" y="600" width="20" height="20" rx="10" fill="#00678C"/>
<path d="M2624.44 472.24C2624.63 472.8 2624.85 473.52 2625.12 474.4C2625.41 475.28 2625.72 476.227 2626.04 477.24C2626.36 478.253 2626.68 479.28 2627 480.32C2627.32 481.36 2627.63 482.32 2627.92 483.2C2628.24 482.213 2628.57 481.2 2628.92 480.16C2629.27 479.093 2629.6 478.08 2629.92 477.12C2630.24 476.133 2630.53 475.213 2630.8 474.36C2631.07 473.507 2631.31 472.8 2631.52 472.24H2635.6C2635.79 474.4 2635.96 476.507 2636.12 478.56C2636.31 480.613 2636.45 482.653 2636.56 484.68C2636.69 486.68 2636.8 488.707 2636.88 490.76C2636.96 492.787 2637.03 494.867 2637.08 497H2632.56L2632.8 477.76L2629.76 488.24H2626.16L2623.24 477.76L2623.44 497H2618.92C2619 494.973 2619.08 492.867 2619.16 490.68C2619.27 488.493 2619.37 486.32 2619.48 484.16C2619.59 482 2619.71 479.907 2619.84 477.88C2620 475.853 2620.17 473.973 2620.36 472.24H2624.44ZM2648.16 483.56C2648.45 482.947 2648.79 482.173 2649.16 481.24C2649.56 480.307 2649.95 479.32 2650.32 478.28C2650.72 477.24 2651.09 476.187 2651.44 475.12C2651.81 474.053 2652.15 473.093 2652.44 472.24H2657.52C2657.01 473.6 2656.51 474.92 2656 476.2C2655.49 477.48 2654.96 478.747 2654.4 480C2653.84 481.253 2653.24 482.507 2652.6 483.76C2651.96 484.987 2651.27 486.253 2650.52 487.56V497H2645.56V487.6C2644.09 485.013 2642.8 482.493 2641.68 480.04C2640.59 477.56 2639.53 474.96 2638.52 472.24H2643.8C2644.41 474.16 2645.09 476.12 2645.84 478.12C2646.59 480.093 2647.36 481.907 2648.16 483.56ZM2667.28 493.4C2668.11 493.4 2668.79 493.32 2669.32 493.16C2669.88 492.973 2670.32 492.733 2670.64 492.44C2670.96 492.12 2671.17 491.773 2671.28 491.4C2671.41 491 2671.48 490.6 2671.48 490.2C2671.48 489.693 2671.33 489.24 2671.04 488.84C2670.75 488.44 2670.37 488.093 2669.92 487.8C2669.47 487.48 2668.96 487.2 2668.4 486.96C2667.84 486.693 2667.28 486.453 2666.72 486.24C2665.97 485.973 2665.2 485.667 2664.4 485.32C2663.6 484.973 2662.87 484.533 2662.2 484C2661.56 483.467 2661.03 482.813 2660.6 482.04C2660.17 481.24 2659.96 480.253 2659.96 479.08C2659.96 476.76 2660.71 474.947 2662.2 473.64C2663.72 472.333 2665.8 471.68 2668.44 471.68C2669.96 471.68 2671.28 471.853 2672.4 472.2C2673.55 472.547 2674.51 472.933 2675.28 473.36L2673.84 477.16C2673.17 476.787 2672.43 476.467 2671.6 476.2C2670.8 475.933 2669.87 475.8 2668.8 475.8C2666.19 475.8 2664.88 476.747 2664.88 478.64C2664.88 479.12 2665.01 479.547 2665.28 479.92C2665.55 480.267 2665.88 480.587 2666.28 480.88C2666.71 481.147 2667.17 481.387 2667.68 481.6C2668.21 481.813 2668.73 482.013 2669.24 482.2C2670.01 482.493 2670.81 482.827 2671.64 483.2C2672.49 483.547 2673.27 484.027 2673.96 484.64C2674.68 485.227 2675.27 485.973 2675.72 486.88C2676.17 487.76 2676.4 488.88 2676.4 490.24C2676.4 492.56 2675.64 494.36 2674.12 495.64C2672.63 496.893 2670.35 497.52 2667.28 497.52C2665.23 497.52 2663.59 497.307 2662.36 496.88C2661.13 496.427 2660.21 496.013 2659.6 495.64L2661.04 491.64C2661.76 492.067 2662.61 492.467 2663.6 492.84C2664.61 493.213 2665.84 493.4 2667.28 493.4ZM2679.08 484.72C2679.08 480.453 2679.87 477.24 2681.44 475.08C2683.01 472.893 2685.2 471.8 2688 471.8C2690.91 471.8 2693.12 472.893 2694.64 475.08C2696.16 477.24 2696.92 480.453 2696.92 484.72C2696.92 488.453 2696.32 491.4 2695.12 493.56C2693.92 495.693 2692.19 496.987 2689.92 497.44C2690.21 498.107 2690.92 498.653 2692.04 499.08C2693.19 499.533 2694.75 499.933 2696.72 500.28L2695.68 503.8C2692.56 503.373 2690.2 502.653 2688.6 501.64C2687.03 500.653 2686.09 499.227 2685.8 497.36C2683.64 496.827 2681.97 495.507 2680.8 493.4C2679.65 491.267 2679.08 488.373 2679.08 484.72ZM2684.08 484.72C2684.08 485.92 2684.12 487.04 2684.2 488.08C2684.31 489.12 2684.49 490.04 2684.76 490.84C2685.05 491.613 2685.45 492.227 2685.96 492.68C2686.47 493.133 2687.15 493.36 2688 493.36C2688.83 493.36 2689.49 493.133 2690 492.68C2690.53 492.227 2690.93 491.613 2691.2 490.84C2691.49 490.04 2691.68 489.12 2691.76 488.08C2691.87 487.04 2691.92 485.92 2691.92 484.72C2691.92 483.52 2691.87 482.4 2691.76 481.36C2691.68 480.293 2691.49 479.373 2691.2 478.6C2690.93 477.827 2690.55 477.213 2690.04 476.76C2689.53 476.307 2688.85 476.08 2688 476.08C2687.15 476.08 2686.47 476.307 2685.96 476.76C2685.45 477.213 2685.05 477.84 2684.76 478.64C2684.49 479.413 2684.31 480.32 2684.2 481.36C2684.12 482.4 2684.08 483.52 2684.08 484.72ZM2716.4 497H2700.84V472.24H2705.8V492.92H2716.4V497Z" fill="white"/>
<g clip-path="url(#clip0_5_2)">
<path fill-rule="evenodd" clip-rule="evenodd" d="M2800.73 377.789C2784.69 377.342 2772.24 378.987 2761.81 383.375C2758.8 384.582 2753.98 384.582 2753.59 388.363C2755.19 389.949 2755.38 392.545 2756.79 394.744C2759.2 398.735 2763.42 404.111 2767.22 406.9L2780.06 416.074C2787.89 420.856 2796.71 423.649 2804.34 428.435C2808.75 431.228 2813.16 434.817 2817.58 437.811C2819.83 439.406 2821.19 442.003 2824 442.995V442.392C2822.6 440.604 2822.19 438.012 2820.79 436.01L2814.77 430.232C2808.95 422.456 2801.73 415.672 2793.9 410.095C2787.48 405.706 2773.44 399.727 2770.84 392.353L2770.44 391.906C2774.85 391.46 2780.06 389.909 2784.28 388.711C2791.11 386.924 2797.32 387.317 2804.34 385.525L2813.97 382.732V380.944C2810.36 377.356 2807.75 372.569 2803.94 369.182C2793.71 360.41 2782.47 351.834 2770.84 344.657C2764.62 340.67 2756.59 338.074 2749.97 334.691C2747.56 333.493 2743.55 332.895 2742.15 330.901C2738.53 326.522 2736.52 320.735 2733.92 315.546L2717.47 280.854C2713.86 273.078 2711.64 265.302 2707.24 258.125C2686.57 224.229 2664.1 203.694 2629.59 183.553C2622.17 179.365 2613.34 177.564 2603.96 175.375L2588.91 174.57C2585.69 173.176 2582.49 169.386 2579.68 167.59C2568.24 160.413 2538.75 144.861 2530.32 165.355C2524.9 178.315 2538.34 191.074 2542.91 197.657C2546.32 202.242 2550.73 207.426 2553.15 212.61C2554.49 215.997 2554.94 219.59 2556.35 223.178C2559.56 231.951 2562.57 241.724 2566.78 249.903C2569.03 254.09 2571.39 258.483 2574.2 262.268C2575.81 264.502 2578.62 265.459 2579.22 269.047C2576.41 273.038 2576.21 279.013 2574.61 284.005C2567.38 306.537 2570.19 334.45 2580.42 351.038C2583.64 356.021 2591.22 366.992 2601.5 362.8C2610.52 359.212 2608.51 347.847 2611.12 337.877C2611.73 335.486 2611.32 333.891 2612.52 332.291V332.738L2620.75 349.286C2626.97 359.056 2637.81 369.227 2646.83 376.011C2651.64 379.599 2655.46 385.784 2661.47 387.974V387.37H2661.08C2659.87 385.583 2658.06 384.779 2656.46 383.384C2652.85 379.796 2648.84 375.407 2646.03 371.421C2637.6 360.258 2630.18 347.892 2623.56 335.133C2620.35 328.953 2617.54 322.174 2614.94 315.993C2613.72 313.598 2613.72 310.005 2611.72 308.816C2608.71 313.196 2604.3 316.994 2602.08 322.375C2598.27 330.946 2597.88 341.515 2596.47 352.482C2595.66 352.683 2596.02 352.482 2595.66 352.929C2589.25 351.338 2587.04 344.751 2584.63 339.173C2578.62 325.016 2577.61 302.287 2582.82 285.935C2584.23 281.748 2590.25 268.587 2587.85 264.601C2586.63 260.811 2582.63 258.621 2580.42 255.627C2577.81 251.838 2575.01 247.056 2573.2 242.868C2568.39 231.696 2565.98 219.34 2560.76 208.172C2558.35 202.988 2554.14 197.603 2550.73 192.821C2546.91 187.436 2542.71 183.647 2539.7 177.269C2538.69 175.035 2537.29 171.487 2538.9 169.091C2539.29 167.496 2540.1 166.857 2541.7 166.499C2544.31 164.265 2551.73 167.098 2554.34 168.287C2561.76 171.281 2567.98 174.07 2574.2 178.253C2577.01 180.246 2580.02 184.035 2583.63 185.036H2587.85C2594.27 186.431 2601.49 185.483 2607.5 187.271C2618.14 190.667 2627.77 195.646 2636.4 201.035C2662.68 217.583 2684.35 241.112 2698.99 269.231C2701.4 273.816 2702.4 278.003 2704.62 282.789C2708.83 292.563 2714.05 302.528 2718.25 312.105C2722.47 321.476 2726.48 331.053 2732.5 338.829C2735.51 343.017 2747.55 345.206 2752.96 347.401C2756.98 349.188 2763.19 350.797 2766.81 352.987C2773.63 357.174 2780.45 361.96 2786.87 366.545C2790.07 368.932 2800.11 373.919 2800.71 377.896L2800.73 377.789ZM2596.13 204.521C2593.35 204.496 2590.59 204.831 2587.91 205.517V205.964H2588.3C2589.91 209.155 2592.72 211.349 2594.72 214.142L2599.34 223.715L2599.74 223.268C2602.55 221.275 2603.96 218.084 2603.96 213.302C2602.75 211.908 2602.55 210.509 2601.55 209.115C2600.34 207.122 2597.74 206.121 2596.13 204.53V204.521Z" fill="#00678C"/>
</g>
<rect x="2130" y="599" width="297" height="20" rx="10" fill="#D9D9D9"/>
<rect x="2130" y="599" width="20" height="20" rx="10" fill="#61DAFB"/>
<path d="M2237.56 469.96C2238.97 469.96 2240.25 470.12 2241.4 470.44C2242.55 470.76 2243.53 471.253 2244.36 471.92C2245.19 472.587 2245.81 473.44 2246.24 474.48C2246.69 475.493 2246.92 476.693 2246.92 478.08C2246.92 479.52 2246.63 480.827 2246.04 482C2245.45 483.173 2244.48 484.067 2243.12 484.68C2243.57 485.373 2244.05 486.147 2244.56 487C2245.07 487.827 2245.56 488.707 2246.04 489.64C2246.52 490.547 2246.97 491.467 2247.4 492.4C2247.85 493.307 2248.24 494.173 2248.56 495H2243.4C2242.79 493.4 2242.07 491.867 2241.24 490.4C2240.44 488.907 2239.57 487.4 2238.64 485.88H2236.08V495H2231.16V470.6C2231.64 470.493 2232.16 470.4 2232.72 470.32C2233.31 470.213 2233.89 470.147 2234.48 470.12C2235.07 470.067 2235.63 470.027 2236.16 470C2236.69 469.973 2237.16 469.96 2237.56 469.96ZM2241.92 478.04C2241.92 476.733 2241.52 475.773 2240.72 475.16C2239.92 474.547 2238.87 474.24 2237.56 474.24C2237.37 474.24 2237.15 474.253 2236.88 474.28C2236.61 474.28 2236.35 474.307 2236.08 474.36V481.8H2237.16C2238.84 481.8 2240.05 481.48 2240.8 480.84C2241.55 480.173 2241.92 479.24 2241.92 478.04ZM2251.52 495V470.24H2266.52V474.32H2256.44V479.88H2265.2V483.96H2256.44V490.92H2267.4V495H2251.52ZM2283.36 495L2282.2 489.28H2275.6L2274.48 495H2269.36C2270.53 490.12 2271.72 485.68 2272.92 481.68C2274.12 477.653 2275.28 473.84 2276.4 470.24H2281.76C2282.93 473.867 2284.09 477.72 2285.24 481.8C2286.41 485.853 2287.55 490.253 2288.64 495H2283.36ZM2278.96 475.04C2278.69 475.973 2278.44 476.867 2278.2 477.72C2277.99 478.547 2277.77 479.373 2277.56 480.2C2277.37 481 2277.19 481.813 2277 482.64C2276.84 483.467 2276.68 484.32 2276.52 485.2H2281.36C2281.2 484.32 2281.04 483.467 2280.88 482.64C2280.72 481.813 2280.53 481 2280.32 480.2C2280.13 479.373 2279.92 478.547 2279.68 477.72C2279.47 476.867 2279.23 475.973 2278.96 475.04ZM2300.84 495.52C2297.35 495.52 2294.68 494.4 2292.84 492.16C2291 489.92 2290.08 486.733 2290.08 482.6C2290.08 480.547 2290.36 478.72 2290.92 477.12C2291.48 475.52 2292.25 474.173 2293.24 473.08C2294.25 471.96 2295.44 471.12 2296.8 470.56C2298.19 469.973 2299.69 469.68 2301.32 469.68C2302.2 469.68 2302.99 469.76 2303.68 469.92C2304.4 470.053 2305.03 470.213 2305.56 470.4C2306.09 470.587 2306.53 470.787 2306.88 471C2307.25 471.213 2307.53 471.373 2307.72 471.48L2306.44 475.4C2305.83 475 2305.08 474.667 2304.2 474.4C2303.35 474.107 2302.36 473.96 2301.24 473.96C2300.47 473.96 2299.71 474.107 2298.96 474.4C2298.24 474.667 2297.59 475.133 2297 475.8C2296.44 476.44 2295.97 477.307 2295.6 478.4C2295.25 479.493 2295.08 480.853 2295.08 482.48C2295.08 485.307 2295.56 487.48 2296.52 489C2297.51 490.493 2299.11 491.24 2301.32 491.24C2302.6 491.24 2303.65 491.093 2304.48 490.8C2305.33 490.507 2306.01 490.213 2306.52 489.92L2307.76 493.8C2307.07 494.227 2306.12 494.627 2304.92 495C2303.75 495.347 2302.39 495.52 2300.84 495.52ZM2328 470.24V474.32H2321.48V495H2316.52V474.32H2310V470.24H2328Z" fill="white"/>
<g clip-path="url(#clip1_5_2)">
<path d="M2279 325.452C2295.24 325.452 2308.41 312.266 2308.41 296C2308.41 279.734 2295.24 266.547 2279 266.547C2262.76 266.547 2249.59 279.734 2249.59 296C2249.59 312.266 2262.76 325.452 2279 325.452Z" fill="#61DAFB"/>
<path d="M2279 356.342C2366.16 356.342 2436.83 329.326 2436.83 296C2436.83 262.674 2366.16 235.658 2279 235.658C2191.83 235.658 2121.17 262.674 2121.17 296C2121.17 329.326 2191.83 356.342 2279 356.342Z" stroke="#61DAFB" stroke-width="15"/>
<path d="M2226.81 326.171C2270.4 401.759 2329.09 449.527 2357.91 432.865C2386.74 416.202 2374.77 341.417 2331.19 265.829C2287.6 190.241 2228.91 142.473 2200.09 159.135C2171.26 175.798 2183.23 250.583 2226.81 326.171Z" stroke="#61DAFB" stroke-width="15"/>
<path d="M2226.81 265.829C2183.23 341.417 2171.26 416.202 2200.09 432.865C2228.91 449.528 2287.6 401.759 2331.19 326.171C2374.77 250.583 2386.74 175.798 2357.91 159.135C2329.09 142.473 2270.39 190.241 2226.81 265.829Z" stroke="#61DAFB" stroke-width="15"/>
</g>
<rect x="1756" y="599" width="297" height="20" rx="10" fill="#D9D9D9"/>
<rect x="1756" y="599" width="78" height="20" rx="10" fill="#2965F1"/>
<path d="M1885.84 495.52C1882.35 495.52 1879.68 494.4 1877.84 492.16C1876 489.92 1875.08 486.733 1875.08 482.6C1875.08 480.547 1875.36 478.72 1875.92 477.12C1876.48 475.52 1877.25 474.173 1878.24 473.08C1879.25 471.96 1880.44 471.12 1881.8 470.56C1883.19 469.973 1884.69 469.68 1886.32 469.68C1887.2 469.68 1887.99 469.76 1888.68 469.92C1889.4 470.053 1890.03 470.213 1890.56 470.4C1891.09 470.587 1891.53 470.787 1891.88 471C1892.25 471.213 1892.53 471.373 1892.72 471.48L1891.44 475.4C1890.83 475 1890.08 474.667 1889.2 474.4C1888.35 474.107 1887.36 473.96 1886.24 473.96C1885.47 473.96 1884.71 474.107 1883.96 474.4C1883.24 474.667 1882.59 475.133 1882 475.8C1881.44 476.44 1880.97 477.307 1880.6 478.4C1880.25 479.493 1880.08 480.853 1880.08 482.48C1880.08 485.307 1880.56 487.48 1881.52 489C1882.51 490.493 1884.11 491.24 1886.32 491.24C1887.6 491.24 1888.65 491.093 1889.48 490.8C1890.33 490.507 1891.01 490.213 1891.52 489.92L1892.76 493.8C1892.07 494.227 1891.12 494.627 1889.92 495C1888.75 495.347 1887.39 495.52 1885.84 495.52ZM1903.28 491.4C1904.11 491.4 1904.79 491.32 1905.32 491.16C1905.88 490.973 1906.32 490.733 1906.64 490.44C1906.96 490.12 1907.17 489.773 1907.28 489.4C1907.41 489 1907.48 488.6 1907.48 488.2C1907.48 487.693 1907.33 487.24 1907.04 486.84C1906.75 486.44 1906.37 486.093 1905.92 485.8C1905.47 485.48 1904.96 485.2 1904.4 484.96C1903.84 484.693 1903.28 484.453 1902.72 484.24C1901.97 483.973 1901.2 483.667 1900.4 483.32C1899.6 482.973 1898.87 482.533 1898.2 482C1897.56 481.467 1897.03 480.813 1896.6 480.04C1896.17 479.24 1895.96 478.253 1895.96 477.08C1895.96 474.76 1896.71 472.947 1898.2 471.64C1899.72 470.333 1901.8 469.68 1904.44 469.68C1905.96 469.68 1907.28 469.853 1908.4 470.2C1909.55 470.547 1910.51 470.933 1911.28 471.36L1909.84 475.16C1909.17 474.787 1908.43 474.467 1907.6 474.2C1906.8 473.933 1905.87 473.8 1904.8 473.8C1902.19 473.8 1900.88 474.747 1900.88 476.64C1900.88 477.12 1901.01 477.547 1901.28 477.92C1901.55 478.267 1901.88 478.587 1902.28 478.88C1902.71 479.147 1903.17 479.387 1903.68 479.6C1904.21 479.813 1904.73 480.013 1905.24 480.2C1906.01 480.493 1906.81 480.827 1907.64 481.2C1908.49 481.547 1909.27 482.027 1909.96 482.64C1910.68 483.227 1911.27 483.973 1911.72 484.88C1912.17 485.76 1912.4 486.88 1912.4 488.24C1912.4 490.56 1911.64 492.36 1910.12 493.64C1908.63 494.893 1906.35 495.52 1903.28 495.52C1901.23 495.52 1899.59 495.307 1898.36 494.88C1897.13 494.427 1896.21 494.013 1895.6 493.64L1897.04 489.64C1897.76 490.067 1898.61 490.467 1899.6 490.84C1900.61 491.213 1901.84 491.4 1903.28 491.4ZM1923.28 491.4C1924.11 491.4 1924.79 491.32 1925.32 491.16C1925.88 490.973 1926.32 490.733 1926.64 490.44C1926.96 490.12 1927.17 489.773 1927.28 489.4C1927.41 489 1927.48 488.6 1927.48 488.2C1927.48 487.693 1927.33 487.24 1927.04 486.84C1926.75 486.44 1926.37 486.093 1925.92 485.8C1925.47 485.48 1924.96 485.2 1924.4 484.96C1923.84 484.693 1923.28 484.453 1922.72 484.24C1921.97 483.973 1921.2 483.667 1920.4 483.32C1919.6 482.973 1918.87 482.533 1918.2 482C1917.56 481.467 1917.03 480.813 1916.6 480.04C1916.17 479.24 1915.96 478.253 1915.96 477.08C1915.96 474.76 1916.71 472.947 1918.2 471.64C1919.72 470.333 1921.8 469.68 1924.44 469.68C1925.96 469.68 1927.28 469.853 1928.4 470.2C1929.55 470.547 1930.51 470.933 1931.28 471.36L1929.84 475.16C1929.17 474.787 1928.43 474.467 1927.6 474.2C1926.8 473.933 1925.87 473.8 1924.8 473.8C1922.19 473.8 1920.88 474.747 1920.88 476.64C1920.88 477.12 1921.01 477.547 1921.28 477.92C1921.55 478.267 1921.88 478.587 1922.28 478.88C1922.71 479.147 1923.17 479.387 1923.68 479.6C1924.21 479.813 1924.73 480.013 1925.24 480.2C1926.01 480.493 1926.81 480.827 1927.64 481.2C1928.49 481.547 1929.27 482.027 1929.96 482.64C1930.68 483.227 1931.27 483.973 1931.72 484.88C1932.17 485.76 1932.4 486.88 1932.4 488.24C1932.4 490.56 1931.64 492.36 1930.12 493.64C1928.63 494.893 1926.35 495.52 1923.28 495.52C1921.23 495.52 1919.59 495.307 1918.36 494.88C1917.13 494.427 1916.21 494.013 1915.6 493.64L1917.04 489.64C1917.76 490.067 1918.61 490.467 1919.6 490.84C1920.61 491.213 1921.84 491.4 1923.28 491.4Z" fill="white"/>
<path d="M1819.96 417.467L1801.06 205.581H2008.64L1989.73 417.434L1904.73 441L1819.96 417.467Z" fill="#264DE4"/>
<path d="M1973.54 403.943L1989.7 222.906H1904.85V422.987L1973.54 403.943Z" fill="#2965F1"/>
<path d="M1844.37 301.491L1846.7 327.478H1904.85V301.491H1844.37Z" fill="#EBEBEB"/>
<path d="M1842.05 274.88H1904.85V248.893H1904.76H1839.69L1842.05 274.88Z" fill="#EBEBEB"/>
<path d="M1904.73 396.053L1904.85 396.019V368.982L1904.74 369.012L1875.8 361.198L1873.95 340.472H1859.89H1847.86L1851.5 381.275L1904.73 396.053Z" fill="#EBEBEB"/>
<path d="M1849.92 148H1881.39V161.162H1863.08V174.324H1881.39V187.486H1849.92V148Z" fill="black"/>
<path d="M1887.69 148H1919.16V159.445H1900.85V161.734H1919.16V188.059H1887.69V176.041H1906V173.752H1887.69V148Z" fill="black"/>
<path d="M1925.46 148H1956.93V159.445H1938.62V161.734H1956.93V188.059H1925.46V176.041H1943.77V173.752H1925.46V148Z" fill="black"/>
<path d="M1969.86 248.893H1904.76V274.88H1941.38L1939.02 301.491H1904.76V327.478H1936.76L1933.75 361.181L1904.76 369.004V396.04L1958.04 381.275L1958.43 376.885L1964.54 308.47L1965.17 301.491L1969.86 248.893Z" fill="white"/>
<rect x="1398" y="597" width="297" height="20" rx="10" fill="#D9D9D9"/>
<rect x="1398" y="597" width="147" height="20" rx="10" fill="#F16529"/>
<path d="M1523.2 468.24V493H1518.28V482.08H1511.72V493H1506.8V468.24H1511.72V478H1518.28V468.24H1523.2ZM1544 468.24V472.32H1537.48V493H1532.52V472.32H1526V468.24H1544ZM1551.44 468.24C1551.63 468.8 1551.85 469.52 1552.12 470.4C1552.41 471.28 1552.72 472.227 1553.04 473.24C1553.36 474.253 1553.68 475.28 1554 476.32C1554.32 477.36 1554.63 478.32 1554.92 479.2C1555.24 478.213 1555.57 477.2 1555.92 476.16C1556.27 475.093 1556.6 474.08 1556.92 473.12C1557.24 472.133 1557.53 471.213 1557.8 470.36C1558.07 469.507 1558.31 468.8 1558.52 468.24H1562.6C1562.79 470.4 1562.96 472.507 1563.12 474.56C1563.31 476.613 1563.45 478.653 1563.56 480.68C1563.69 482.68 1563.8 484.707 1563.88 486.76C1563.96 488.787 1564.03 490.867 1564.08 493H1559.56L1559.8 473.76L1556.76 484.24H1553.16L1550.24 473.76L1550.44 493H1545.92C1546 490.973 1546.08 488.867 1546.16 486.68C1546.27 484.493 1546.37 482.32 1546.48 480.16C1546.59 478 1546.71 475.907 1546.84 473.88C1547 471.853 1547.17 469.973 1547.36 468.24H1551.44ZM1583.4 493H1567.84V468.24H1572.8V488.92H1583.4V493Z" fill="white"/>
<path d="M1460.46 151H1473.71V164.137H1485.92V151H1499.18V190.756H1485.92V177.504H1473.82V190.756H1460.46M1516.69 164.252H1505V151H1541.7V164.252H1529.94V190.756H1516.69M1547.52 151H1561.4L1569.93 165.001L1578.46 151H1592.34V190.756H1579.09V171.051L1569.81 185.34L1560.54 171.051V190.756H1547.52M1598.91 151H1612.16V177.619H1630.95V190.756H1598.91" fill="black"/>
<path d="M1460 422.377L1440.98 208.963H1650.02L1631 422.262L1545.33 446" fill="#E44D26"/>
<path d="M1545.5 427.851V226.479H1630.95L1614.64 408.549" fill="#F16529"/>
<path d="M1479.82 252.579H1545.5V278.737H1508.51L1510.93 305.529H1545.5V331.63H1486.96M1488.11 344.767H1514.39L1516.23 365.682L1545.5 373.518V400.828L1491.8 385.848" fill="#EBEBEB"/>
<path d="M1610.95 252.579H1545.38V278.737H1608.53M1606.17 305.529H1545.38V331.688H1577.65L1574.6 365.682L1545.38 373.518V400.713L1598.97 385.848" fill="white"/>
<rect x="1039" y="599" width="297" height="20" rx="10" fill="#D9D9D9"/>
<rect x="1039" y="599" width="20" height="20" rx="10" fill="#3178C6"/>
<path d="M1105 470.24V474.32H1098.48V495H1093.52V474.32H1087V470.24H1105ZM1116.16 481.56C1116.45 480.947 1116.79 480.173 1117.16 479.24C1117.56 478.307 1117.95 477.32 1118.32 476.28C1118.72 475.24 1119.09 474.187 1119.44 473.12C1119.81 472.053 1120.15 471.093 1120.44 470.24H1125.52C1125.01 471.6 1124.51 472.92 1124 474.2C1123.49 475.48 1122.96 476.747 1122.4 478C1121.84 479.253 1121.24 480.507 1120.6 481.76C1119.96 482.987 1119.27 484.253 1118.52 485.56V495H1113.56V485.6C1112.09 483.013 1110.8 480.493 1109.68 478.04C1108.59 475.56 1107.53 472.96 1106.52 470.24H1111.8C1112.41 472.16 1113.09 474.12 1113.84 476.12C1114.59 478.093 1115.36 479.907 1116.16 481.56ZM1134.96 469.96C1138.11 469.96 1140.55 470.613 1142.28 471.92C1144.01 473.2 1144.88 475.307 1144.88 478.24C1144.88 481.2 1144 483.347 1142.24 484.68C1140.51 485.987 1138.04 486.64 1134.84 486.64H1133.08V495H1128.16V470.56C1128.64 470.453 1129.17 470.36 1129.76 470.28C1130.37 470.2 1130.99 470.147 1131.6 470.12C1132.21 470.067 1132.81 470.027 1133.4 470C1133.99 469.973 1134.51 469.96 1134.96 469.96ZM1135.52 474.24C1135.23 474.24 1134.81 474.253 1134.28 474.28C1133.77 474.28 1133.37 474.307 1133.08 474.36V482.36H1135.08C1136.65 482.36 1137.84 482.053 1138.64 481.44C1139.44 480.8 1139.84 479.72 1139.84 478.2C1139.84 476.76 1139.44 475.747 1138.64 475.16C1137.87 474.547 1136.83 474.24 1135.52 474.24ZM1148.52 495V470.24H1163.52V474.32H1153.44V479.88H1162.2V483.96H1153.44V490.92H1164.4V495H1148.52ZM1175.28 491.4C1176.11 491.4 1176.79 491.32 1177.32 491.16C1177.88 490.973 1178.32 490.733 1178.64 490.44C1178.96 490.12 1179.17 489.773 1179.28 489.4C1179.41 489 1179.48 488.6 1179.48 488.2C1179.48 487.693 1179.33 487.24 1179.04 486.84C1178.75 486.44 1178.37 486.093 1177.92 485.8C1177.47 485.48 1176.96 485.2 1176.4 484.96C1175.84 484.693 1175.28 484.453 1174.72 484.24C1173.97 483.973 1173.2 483.667 1172.4 483.32C1171.6 482.973 1170.87 482.533 1170.2 482C1169.56 481.467 1169.03 480.813 1168.6 480.04C1168.17 479.24 1167.96 478.253 1167.96 477.08C1167.96 474.76 1168.71 472.947 1170.2 471.64C1171.72 470.333 1173.8 469.68 1176.44 469.68C1177.96 469.68 1179.28 469.853 1180.4 470.2C1181.55 470.547 1182.51 470.933 1183.28 471.36L1181.84 475.16C1181.17 474.787 1180.43 474.467 1179.6 474.2C1178.8 473.933 1177.87 473.8 1176.8 473.8C1174.19 473.8 1172.88 474.747 1172.88 476.64C1172.88 477.12 1173.01 477.547 1173.28 477.92C1173.55 478.267 1173.88 478.587 1174.28 478.88C1174.71 479.147 1175.17 479.387 1175.68 479.6C1176.21 479.813 1176.73 480.013 1177.24 480.2C1178.01 480.493 1178.81 480.827 1179.64 481.2C1180.49 481.547 1181.27 482.027 1181.96 482.64C1182.68 483.227 1183.27 483.973 1183.72 484.88C1184.17 485.76 1184.4 486.88 1184.4 488.24C1184.4 490.56 1183.64 492.36 1182.12 493.64C1180.63 494.893 1178.35 495.52 1175.28 495.52C1173.23 495.52 1171.59 495.307 1170.36 494.88C1169.13 494.427 1168.21 494.013 1167.6 493.64L1169.04 489.64C1169.76 490.067 1170.61 490.467 1171.6 490.84C1172.61 491.213 1173.84 491.4 1175.28 491.4ZM1197.84 495.52C1194.35 495.52 1191.68 494.4 1189.84 492.16C1188 489.92 1187.08 486.733 1187.08 482.6C1187.08 480.547 1187.36 478.72 1187.92 477.12C1188.48 475.52 1189.25 474.173 1190.24 473.08C1191.25 471.96 1192.44 471.12 1193.8 470.56C1195.19 469.973 1196.69 469.68 1198.32 469.68C1199.2 469.68 1199.99 469.76 1200.68 469.92C1201.4 470.053 1202.03 470.213 1202.56 470.4C1203.09 470.587 1203.53 470.787 1203.88 471C1204.25 471.213 1204.53 471.373 1204.72 471.48L1203.44 475.4C1202.83 475 1202.08 474.667 1201.2 474.4C1200.35 474.107 1199.36 473.96 1198.24 473.96C1197.47 473.96 1196.71 474.107 1195.96 474.4C1195.24 474.667 1194.59 475.133 1194 475.8C1193.44 476.44 1192.97 477.307 1192.6 478.4C1192.25 479.493 1192.08 480.853 1192.08 482.48C1192.08 485.307 1192.56 487.48 1193.52 489C1194.51 490.493 1196.11 491.24 1198.32 491.24C1199.6 491.24 1200.65 491.093 1201.48 490.8C1202.33 490.507 1203.01 490.213 1203.52 489.92L1204.76 493.8C1204.07 494.227 1203.12 494.627 1201.92 495C1200.75 495.347 1199.39 495.52 1197.84 495.52ZM1214.56 469.96C1215.97 469.96 1217.25 470.12 1218.4 470.44C1219.55 470.76 1220.53 471.253 1221.36 471.92C1222.19 472.587 1222.81 473.44 1223.24 474.48C1223.69 475.493 1223.92 476.693 1223.92 478.08C1223.92 479.52 1223.63 480.827 1223.04 482C1222.45 483.173 1221.48 484.067 1220.12 484.68C1220.57 485.373 1221.05 486.147 1221.56 487C1222.07 487.827 1222.56 488.707 1223.04 489.64C1223.52 490.547 1223.97 491.467 1224.4 492.4C1224.85 493.307 1225.24 494.173 1225.56 495H1220.4C1219.79 493.4 1219.07 491.867 1218.24 490.4C1217.44 488.907 1216.57 487.4 1215.64 485.88H1213.08V495H1208.16V470.6C1208.64 470.493 1209.16 470.4 1209.72 470.32C1210.31 470.213 1210.89 470.147 1211.48 470.12C1212.07 470.067 1212.63 470.027 1213.16 470C1213.69 469.973 1214.16 469.96 1214.56 469.96ZM1218.92 478.04C1218.92 476.733 1218.52 475.773 1217.72 475.16C1216.92 474.547 1215.87 474.24 1214.56 474.24C1214.37 474.24 1214.15 474.253 1213.88 474.28C1213.61 474.28 1213.35 474.307 1213.08 474.36V481.8H1214.16C1215.84 481.8 1217.05 481.48 1217.8 480.84C1218.55 480.173 1218.92 479.24 1218.92 478.04ZM1228.16 495V490.92H1233.56V474.32H1228.16V470.24H1243.88V474.32H1238.52V490.92H1243.88V495H1228.16ZM1254.96 469.96C1258.11 469.96 1260.55 470.613 1262.28 471.92C1264.01 473.2 1264.88 475.307 1264.88 478.24C1264.88 481.2 1264 483.347 1262.24 484.68C1260.51 485.987 1258.04 486.64 1254.84 486.64H1253.08V495H1248.16V470.56C1248.64 470.453 1249.17 470.36 1249.76 470.28C1250.37 470.2 1250.99 470.147 1251.6 470.12C1252.21 470.067 1252.81 470.027 1253.4 470C1253.99 469.973 1254.51 469.96 1254.96 469.96ZM1255.52 474.24C1255.23 474.24 1254.81 474.253 1254.28 474.28C1253.77 474.28 1253.37 474.307 1253.08 474.36V482.36H1255.08C1256.65 482.36 1257.84 482.053 1258.64 481.44C1259.44 480.8 1259.84 479.72 1259.84 478.2C1259.84 476.76 1259.44 475.747 1258.64 475.16C1257.87 474.547 1256.83 474.24 1255.52 474.24ZM1285 470.24V474.32H1278.48V495H1273.52V474.32H1267V470.24H1285Z" fill="white"/>
<g clip-path="url(#clip2_5_2)">
<path d="M1304.29 148H1067.71C1051.85 148 1039 160.854 1039 176.711V413.289C1039 429.146 1051.85 442 1067.71 442H1304.29C1320.15 442 1333 429.146 1333 413.289V176.711C1333 160.854 1320.15 148 1304.29 148Z" fill="#3178C6"/>
<path d="M1304.29 148H1067.71C1051.85 148 1039 160.854 1039 176.711V413.289C1039 429.146 1051.85 442 1067.71 442H1304.29C1320.15 442 1333 429.146 1333 413.289V176.711C1333 160.854 1320.15 148 1304.29 148Z" fill="#3178C6"/>
<path fill-rule="evenodd" clip-rule="evenodd" d="M1220.99 381.951V410.696C1225.67 413.092 1231.19 414.888 1237.57 416.086C1243.95 417.284 1250.68 417.883 1257.75 417.883C1264.64 417.883 1271.18 417.224 1277.38 415.906C1283.59 414.589 1289.02 412.418 1293.7 409.394C1298.37 406.37 1302.07 402.417 1304.79 397.536C1307.52 392.655 1308.88 386.622 1308.88 379.435C1308.88 374.225 1308.1 369.659 1306.55 365.736C1304.99 361.814 1302.74 358.325 1299.81 355.271C1296.87 352.217 1293.35 349.477 1289.25 347.051C1285.14 344.626 1280.51 342.335 1275.36 340.18C1271.59 338.622 1268.2 337.11 1265.21 335.643C1262.21 334.175 1259.67 332.679 1257.57 331.152C1255.47 329.624 1253.85 328.007 1252.72 326.301C1251.58 324.594 1251.01 322.662 1251.01 320.506C1251.01 318.53 1251.52 316.749 1252.54 315.161C1253.55 313.574 1254.99 312.212 1256.85 311.074C1258.71 309.937 1260.98 309.053 1263.68 308.424C1266.38 307.795 1269.37 307.481 1272.67 307.481C1275.06 307.481 1277.59 307.661 1280.26 308.02C1282.93 308.379 1285.61 308.933 1288.3 309.682C1291 310.43 1293.62 311.374 1296.17 312.511C1298.71 313.649 1301.06 314.967 1303.22 316.464V289.605C1298.85 287.928 1294.07 286.685 1288.89 285.877C1283.71 285.068 1277.76 284.664 1271.05 284.664C1264.22 284.664 1257.75 285.398 1251.64 286.865C1245.53 288.332 1240.15 290.623 1235.51 293.737C1230.86 296.851 1227.19 300.819 1224.5 305.64C1221.8 310.46 1220.45 316.224 1220.45 322.932C1220.45 331.496 1222.92 338.802 1227.87 344.851C1232.81 350.899 1240.31 356.019 1250.38 360.212C1254.33 361.829 1258.02 363.415 1261.43 364.973C1264.85 366.53 1267.8 368.147 1270.28 369.824C1272.77 371.5 1274.73 373.327 1276.17 375.303C1277.61 377.279 1278.33 379.525 1278.33 382.041C1278.33 383.897 1277.88 385.619 1276.98 387.206C1276.08 388.793 1274.72 390.17 1272.89 391.338C1271.06 392.506 1268.79 393.419 1266.06 394.077C1263.33 394.737 1260.14 395.066 1256.49 395.066C1250.26 395.066 1244.09 393.973 1237.98 391.787C1231.87 389.601 1226.2 386.323 1220.99 381.951ZM1172.67 311.125H1209.54V287.535H1106.76V311.125H1143.45V416.16H1172.67V311.125Z" fill="white"/>
</g>
<rect x="640" y="599" width="297" height="20" rx="10" fill="#D9D9D9"/>
<rect x="640" y="599" width="49" height="20" rx="10" fill="#F7DF1E"/>
<path d="M706.52 486.72C706.52 487.92 706.36 489.053 706.04 490.12C705.747 491.187 705.24 492.12 704.52 492.92C703.827 493.72 702.92 494.36 701.8 494.84C700.68 495.293 699.32 495.52 697.72 495.52C696.04 495.52 694.64 495.307 693.52 494.88C692.4 494.453 691.453 493.933 690.68 493.32L692.56 489.4C693.227 489.827 693.96 490.24 694.76 490.64C695.587 491.04 696.427 491.24 697.28 491.24C698.56 491.24 699.587 490.907 700.36 490.24C701.16 489.547 701.56 488.28 701.56 486.44V474.32H693.28V470.24H706.52V486.72ZM723.36 495L722.2 489.28H715.6L714.48 495H709.36C710.533 490.12 711.72 485.68 712.92 481.68C714.12 477.653 715.28 473.84 716.4 470.24H721.76C722.933 473.867 724.093 477.72 725.24 481.8C726.413 485.853 727.547 490.253 728.64 495H723.36ZM718.96 475.04C718.693 475.973 718.44 476.867 718.2 477.72C717.987 478.547 717.773 479.373 717.56 480.2C717.373 481 717.187 481.813 717 482.64C716.84 483.467 716.68 484.32 716.52 485.2H721.36C721.2 484.32 721.04 483.467 720.88 482.64C720.72 481.813 720.533 481 720.32 480.2C720.133 479.373 719.92 478.547 719.68 477.72C719.467 476.867 719.227 475.973 718.96 475.04ZM736.44 495C735.8 493.16 735.12 491.08 734.4 488.76C733.68 486.44 733 484.133 732.36 481.84C731.72 479.52 731.147 477.333 730.64 475.28C730.133 473.227 729.76 471.547 729.52 470.24H734.72C734.88 471.52 735.12 473.013 735.44 474.72C735.76 476.4 736.107 478.147 736.48 479.96C736.88 481.747 737.293 483.52 737.72 485.28C738.173 487.013 738.613 488.573 739.04 489.96C739.467 488.6 739.893 487.053 740.32 485.32C740.747 483.56 741.147 481.787 741.52 480C741.893 478.187 742.24 476.427 742.56 474.72C742.88 473.013 743.147 471.52 743.36 470.24H748.52C748.2 471.84 747.8 473.627 747.32 475.6C746.867 477.573 746.333 479.653 745.72 481.84C745.133 484 744.48 486.213 743.76 488.48C743.04 490.72 742.293 492.893 741.52 495H736.44ZM763.36 495L762.2 489.28H755.6L754.48 495H749.36C750.533 490.12 751.72 485.68 752.92 481.68C754.12 477.653 755.28 473.84 756.4 470.24H761.76C762.933 473.867 764.093 477.72 765.24 481.8C766.413 485.853 767.547 490.253 768.64 495H763.36ZM758.96 475.04C758.693 475.973 758.44 476.867 758.2 477.72C757.987 478.547 757.773 479.373 757.56 480.2C757.373 481 757.187 481.813 757 482.64C756.84 483.467 756.68 484.32 756.52 485.2H761.36C761.2 484.32 761.04 483.467 760.88 482.64C760.72 481.813 760.533 481 760.32 480.2C760.133 479.373 759.92 478.547 759.68 477.72C759.467 476.867 759.227 475.973 758.96 475.04ZM778.28 491.4C779.107 491.4 779.787 491.32 780.32 491.16C780.88 490.973 781.32 490.733 781.64 490.44C781.96 490.12 782.173 489.773 782.28 489.4C782.413 489 782.48 488.6 782.48 488.2C782.48 487.693 782.333 487.24 782.04 486.84C781.747 486.44 781.373 486.093 780.92 485.8C780.467 485.48 779.96 485.2 779.4 484.96C778.84 484.693 778.28 484.453 777.72 484.24C776.973 483.973 776.2 483.667 775.4 483.32C774.6 482.973 773.867 482.533 773.2 482C772.56 481.467 772.027 480.813 771.6 480.04C771.173 479.24 770.96 478.253 770.96 477.08C770.96 474.76 771.707 472.947 773.2 471.64C774.72 470.333 776.8 469.68 779.44 469.68C780.96 469.68 782.28 469.853 783.4 470.2C784.547 470.547 785.507 470.933 786.28 471.36L784.84 475.16C784.173 474.787 783.427 474.467 782.6 474.2C781.8 473.933 780.867 473.8 779.8 473.8C777.187 473.8 775.88 474.747 775.88 476.64C775.88 477.12 776.013 477.547 776.28 477.92C776.547 478.267 776.88 478.587 777.28 478.88C777.707 479.147 778.173 479.387 778.68 479.6C779.213 479.813 779.733 480.013 780.24 480.2C781.013 480.493 781.813 480.827 782.64 481.2C783.493 481.547 784.267 482.027 784.96 482.64C785.68 483.227 786.267 483.973 786.72 484.88C787.173 485.76 787.4 486.88 787.4 488.24C787.4 490.56 786.64 492.36 785.12 493.64C783.627 494.893 781.347 495.52 778.28 495.52C776.227 495.52 774.587 495.307 773.36 494.88C772.133 494.427 771.213 494.013 770.6 493.64L772.04 489.64C772.76 490.067 773.613 490.467 774.6 490.84C775.613 491.213 776.84 491.4 778.28 491.4ZM800.84 495.52C797.347 495.52 794.68 494.4 792.84 492.16C791 489.92 790.08 486.733 790.08 482.6C790.08 480.547 790.36 478.72 790.92 477.12C791.48 475.52 792.253 474.173 793.24 473.08C794.253 471.96 795.44 471.12 796.8 470.56C798.187 469.973 799.693 469.68 801.32 469.68C802.2 469.68 802.987 469.76 803.68 469.92C804.4 470.053 805.027 470.213 805.56 470.4C806.093 470.587 806.533 470.787 806.88 471C807.253 471.213 807.533 471.373 807.72 471.48L806.44 475.4C805.827 475 805.08 474.667 804.2 474.4C803.347 474.107 802.36 473.96 801.24 473.96C800.467 473.96 799.707 474.107 798.96 474.4C798.24 474.667 797.587 475.133 797 475.8C796.44 476.44 795.973 477.307 795.6 478.4C795.253 479.493 795.08 480.853 795.08 482.48C795.08 485.307 795.56 487.48 796.52 489C797.507 490.493 799.107 491.24 801.32 491.24C802.6 491.24 803.653 491.093 804.48 490.8C805.333 490.507 806.013 490.213 806.52 489.92L807.76 493.8C807.067 494.227 806.12 494.627 804.92 495C803.747 495.347 802.387 495.52 800.84 495.52ZM817.56 469.96C818.973 469.96 820.253 470.12 821.4 470.44C822.547 470.76 823.533 471.253 824.36 471.92C825.187 472.587 825.813 473.44 826.24 474.48C826.693 475.493 826.92 476.693 826.92 478.08C826.92 479.52 826.627 480.827 826.04 482C825.453 483.173 824.48 484.067 823.12 484.68C823.573 485.373 824.053 486.147 824.56 487C825.067 487.827 825.56 488.707 826.04 489.64C826.52 490.547 826.973 491.467 827.4 492.4C827.853 493.307 828.24 494.173 828.56 495H823.4C822.787 493.4 822.067 491.867 821.24 490.4C820.44 488.907 819.573 487.4 818.64 485.88H816.08V495H811.16V470.6C811.64 470.493 812.16 470.4 812.72 470.32C813.307 470.213 813.893 470.147 814.48 470.12C815.067 470.067 815.627 470.027 816.16 470C816.693 469.973 817.16 469.96 817.56 469.96ZM821.92 478.04C821.92 476.733 821.52 475.773 820.72 475.16C819.92 474.547 818.867 474.24 817.56 474.24C817.373 474.24 817.147 474.253 816.88 474.28C816.613 474.28 816.347 474.307 816.08 474.36V481.8H817.16C818.84 481.8 820.053 481.48 820.8 480.84C821.547 480.173 821.92 479.24 821.92 478.04ZM831.16 495V490.92H836.56V474.32H831.16V470.24H846.88V474.32H841.52V490.92H846.88V495H831.16ZM857.96 469.96C861.107 469.96 863.547 470.613 865.28 471.92C867.013 473.2 867.88 475.307 867.88 478.24C867.88 481.2 867 483.347 865.24 484.68C863.507 485.987 861.04 486.64 857.84 486.64H856.08V495H851.16V470.56C851.64 470.453 852.173 470.36 852.76 470.28C853.373 470.2 853.987 470.147 854.6 470.12C855.213 470.067 855.813 470.027 856.4 470C856.987 469.973 857.507 469.96 857.96 469.96ZM858.52 474.24C858.227 474.24 857.813 474.253 857.28 474.28C856.773 474.28 856.373 474.307 856.08 474.36V482.36H858.08C859.653 482.36 860.84 482.053 861.64 481.44C862.44 480.8 862.84 479.72 862.84 478.2C862.84 476.76 862.44 475.747 861.64 475.16C860.867 474.547 859.827 474.24 858.52 474.24ZM888 470.24V474.32H881.48V495H876.52V474.32H870V470.24H888Z" fill="white"/>
<g clip-path="url(#clip3_5_2)">
<path d="M640 148H937V445H640V148Z" fill="#F7DF1E"/>
<path d="M718.092 396.194L740.82 382.44C745.205 390.214 749.194 396.792 758.762 396.792C767.933 396.792 773.716 393.205 773.716 379.25V284.352H801.626V379.645C801.626 408.552 784.681 421.711 759.958 421.711C737.631 421.711 724.671 410.148 718.091 396.192M816.786 393.204L839.511 380.046C845.494 389.816 853.269 396.993 867.024 396.993C878.59 396.993 885.964 391.21 885.964 383.235C885.964 373.666 878.388 370.277 865.628 364.696L858.652 361.703C838.516 353.133 825.159 342.367 825.159 319.639C825.159 298.705 841.107 282.755 866.029 282.755C883.772 282.755 896.531 288.937 905.701 305.085L883.969 319.042C879.184 310.469 874.002 307.08 866.027 307.08C857.853 307.08 852.669 312.264 852.669 319.042C852.669 327.415 857.853 330.806 869.814 335.989L876.791 338.979C900.517 349.148 913.873 359.514 913.873 382.838C913.873 407.96 894.137 421.714 867.622 421.714C841.705 421.714 824.958 409.354 816.785 393.205" fill="black"/>
</g>
<rect x="291" y="599" width="297" height="20" rx="10" fill="#D9D9D9"/>
<rect x="291" y="599" width="169" height="20" rx="10" fill="#A259FF"/>
<path d="M392.52 495V470.24H407.68V474.32H397.44V480.32H406.4V484.4H397.44V495H392.52ZM412.16 495V490.92H417.56V474.32H412.16V470.24H427.88V474.32H422.52V490.92H427.88V495H412.16ZM442.48 473.96C441.307 473.96 440.32 474.173 439.52 474.6C438.72 475.027 438.053 475.627 437.52 476.4C437.013 477.147 436.64 478.053 436.4 479.12C436.187 480.16 436.08 481.32 436.08 482.6C436.08 485.56 436.547 487.747 437.48 489.16C438.413 490.547 439.787 491.24 441.6 491.24C441.893 491.24 442.213 491.227 442.56 491.2C442.907 491.173 443.227 491.133 443.52 491.08V482.04H448.44V494.4C447.853 494.613 446.933 494.853 445.68 495.12C444.453 495.387 442.96 495.52 441.2 495.52C439.653 495.52 438.253 495.253 437 494.72C435.773 494.16 434.72 493.347 433.84 492.28C432.96 491.187 432.28 489.84 431.8 488.24C431.32 486.613 431.08 484.733 431.08 482.6C431.08 480.493 431.36 478.64 431.92 477.04C432.48 475.413 433.24 474.053 434.2 472.96C435.16 471.867 436.293 471.053 437.6 470.52C438.907 469.96 440.307 469.68 441.8 469.68C442.76 469.68 443.613 469.76 444.36 469.92C445.133 470.053 445.8 470.213 446.36 470.4C446.92 470.587 447.373 470.787 447.72 471C448.093 471.213 448.373 471.373 448.56 471.48L447.28 475.4C446.693 475.027 445.973 474.693 445.12 474.4C444.267 474.107 443.387 473.96 442.48 473.96ZM456.44 470.24C456.627 470.8 456.853 471.52 457.12 472.4C457.413 473.28 457.72 474.227 458.04 475.24C458.36 476.253 458.68 477.28 459 478.32C459.32 479.36 459.627 480.32 459.92 481.2C460.24 480.213 460.573 479.2 460.92 478.16C461.267 477.093 461.6 476.08 461.92 475.12C462.24 474.133 462.533 473.213 462.8 472.36C463.067 471.507 463.307 470.8 463.52 470.24H467.6C467.787 472.4 467.96 474.507 468.12 476.56C468.307 478.613 468.453 480.653 468.56 482.68C468.693 484.68 468.8 486.707 468.88 488.76C468.96 490.787 469.027 492.867 469.08 495H464.56L464.8 475.76L461.76 486.24H458.16L455.24 475.76L455.44 495H450.92C451 492.973 451.08 490.867 451.16 488.68C451.267 486.493 451.373 484.32 451.48 482.16C451.587 480 451.707 477.907 451.84 475.88C452 473.853 452.173 471.973 452.36 470.24H456.44ZM484.36 495L483.2 489.28H476.6L475.48 495H470.36C471.533 490.12 472.72 485.68 473.92 481.68C475.12 477.653 476.28 473.84 477.4 470.24H482.76C483.933 473.867 485.093 477.72 486.24 481.8C487.413 485.853 488.547 490.253 489.64 495H484.36ZM479.96 475.04C479.693 475.973 479.44 476.867 479.2 477.72C478.987 478.547 478.773 479.373 478.56 480.2C478.373 481 478.187 481.813 478 482.64C477.84 483.467 477.68 484.32 477.52 485.2H482.36C482.2 484.32 482.04 483.467 481.88 482.64C481.72 481.813 481.533 481 481.32 480.2C481.133 479.373 480.92 478.547 480.68 477.72C480.467 476.867 480.227 475.973 479.96 475.04Z" fill="white"/>
<g clip-path="url(#clip4_5_2)">
<path d="M391 442.059C418.048 442.059 440 420.103 440 393.049V344.039H391C363.952 344.039 342 365.996 342 393.049C342 420.103 363.952 442.059 391 442.059Z" fill="#0ACF83"/>
<path d="M342 295.029C342 267.976 363.952 246.02 391 246.02H440V344.039H391C363.952 344.039 342 322.083 342 295.029Z" fill="#A259FF"/>
<path d="M342 197.01C342 169.956 363.952 148 391 148H440V246.02H391C363.952 246.02 342 224.063 342 197.01Z" fill="#F24E1E"/>
<path d="M440 148H489C516.048 148 538 169.956 538 197.01C538 224.063 516.048 246.02 489 246.02H440V148Z" fill="#FF7262"/>
<path d="M538 295.029C538 322.083 516.048 344.039 489 344.039C461.952 344.039 440 322.083 440 295.029C440 267.976 461.952 246.02 489 246.02C516.048 246.02 538 267.976 538 295.029Z" fill="#1ABCFE"/>
</g>
<defs>
<clipPath id="clip0_5_2">
<rect width="295" height="295" fill="white" transform="translate(2529 148)"/>
</clipPath>
<clipPath id="clip1_5_2">
<rect width="330" height="294" fill="white" transform="translate(2114 149)"/>
</clipPath>
<clipPath id="clip2_5_2">
<rect width="294" height="294" fill="white" transform="translate(1039 148)"/>
</clipPath>
<clipPath id="clip3_5_2">
<rect width="297" height="297" fill="white" transform="translate(640 148)"/>
</clipPath>
<clipPath id="clip4_5_2">
<rect width="196" height="294" fill="white" transform="translate(342 148)"/>
</clipPath>
</defs>
</svg>
