<svg width="294" height="294" viewBox="0 0 294 294" fill="none" xmlns="http://www.w3.org/2000/svg">
<g clip-path="url(#clip0_5_28)">
<path d="M265.289 0H28.7109C12.8543 0 0 12.8543 0 28.7109V265.289C0 281.146 12.8543 294 28.7109 294H265.289C281.146 294 294 281.146 294 265.289V28.7109C294 12.8543 281.146 0 265.289 0Z" fill="#3178C6"/>
<path d="M265.289 0H28.7109C12.8543 0 0 12.8543 0 28.7109V265.289C0 281.146 12.8543 294 28.7109 294H265.289C281.146 294 294 281.146 294 265.289V28.7109C294 12.8543 281.146 0 265.289 0Z" fill="#3178C6"/>
<path fill-rule="evenodd" clip-rule="evenodd" d="M181.992 233.951V262.696C186.665 265.092 192.192 266.888 198.573 268.086C204.954 269.284 211.678 269.883 218.748 269.883C225.638 269.883 232.183 269.224 238.384 267.906C244.585 266.589 250.022 264.418 254.695 261.394C259.368 258.37 263.068 254.417 265.794 249.536C268.52 244.655 269.883 238.622 269.883 231.435C269.883 226.225 269.104 221.659 267.546 217.736C265.988 213.814 263.742 210.325 260.806 207.271C257.871 204.217 254.351 201.477 250.247 199.051C246.143 196.626 241.515 194.335 236.362 192.18C232.588 190.622 229.203 189.11 226.207 187.643C223.211 186.175 220.665 184.679 218.568 183.152C216.471 181.624 214.854 180.007 213.716 178.301C212.577 176.594 212.008 174.662 212.008 172.506C212.008 170.53 212.517 168.749 213.536 167.161C214.555 165.574 215.992 164.212 217.849 163.074C219.707 161.937 221.983 161.053 224.679 160.424C227.376 159.795 230.371 159.481 233.666 159.481C236.062 159.481 238.594 159.661 241.26 160.02C243.926 160.379 246.607 160.933 249.303 161.682C251.999 162.43 254.62 163.374 257.167 164.511C259.713 165.649 262.064 166.967 264.221 168.464V141.605C259.848 139.928 255.07 138.685 249.887 137.877C244.705 137.068 238.758 136.664 232.049 136.664C225.218 136.664 218.748 137.398 212.637 138.865C206.526 140.332 201.149 142.623 196.506 145.737C191.863 148.851 188.193 152.819 185.497 157.64C182.801 162.46 181.453 168.224 181.453 174.932C181.453 183.496 183.925 190.802 188.867 196.851C193.81 202.899 201.314 208.019 211.379 212.212C215.333 213.829 219.018 215.415 222.433 216.973C225.848 218.53 228.799 220.147 231.284 221.824C233.771 223.5 235.733 225.327 237.171 227.303C238.609 229.279 239.328 231.525 239.328 234.041C239.328 235.897 238.878 237.619 237.98 239.206C237.081 240.793 235.718 242.17 233.891 243.338C232.064 244.506 229.787 245.419 227.061 246.077C224.335 246.737 221.145 247.066 217.49 247.066C211.259 247.066 205.089 245.973 198.977 243.787C192.866 241.601 187.204 238.323 181.992 233.951ZM133.667 163.125H170.543V139.535H67.7578V163.125H104.454V268.16H133.667V163.125Z" fill="white"/>
</g>
<defs>
<clipPath id="clip0_5_28">
<rect width="294" height="294" fill="white"/>
</clipPath>
</defs>
</svg>
