<svg width="293" height="293" viewBox="0 0 293 293" fill="none" xmlns="http://www.w3.org/2000/svg">
<path d="M62.9555 269.467L44.0645 57.5814H251.645L232.734 269.434L147.728 293L62.9555 269.467Z" fill="#264DE4"/>
<path d="M216.544 255.943L232.704 74.9061H147.854V274.987L216.544 255.943Z" fill="#2965F1"/>
<path d="M87.3718 153.491L89.701 179.478H147.855V153.491H87.3718Z" fill="#EBEBEB"/>
<path d="M85.0542 126.88H147.855V100.893H147.765H82.6919L85.0542 126.88Z" fill="#EBEBEB"/>
<path d="M147.735 248.053L147.855 248.019V220.982L147.741 221.012L118.799 213.198L116.949 192.472H102.885H90.8621L94.5028 233.275L147.735 248.053Z" fill="#EBEBEB"/>
<path d="M92.917 0H124.392V13.1621H106.079V26.3242H124.392V39.4863H92.917V0Z" fill="black"/>
<path d="M130.687 0H162.161V11.4453H143.849V13.7344H162.161V40.0586H130.687V28.041H148.999V25.752H130.687V0Z" fill="black"/>
<path d="M168.456 0H199.931V11.4453H181.618V13.7344H199.931V40.0586H168.456V28.041H186.769V25.752H168.456V0Z" fill="black"/>
<path d="M212.862 100.893H147.765V126.88H184.383L182.018 153.491H147.765V179.478H179.765L176.748 213.181L147.765 221.004V248.04L201.039 233.275L201.43 228.885L207.537 160.47L208.171 153.491L212.862 100.893Z" fill="white"/>
</svg>
